<?xml version="1.0" encoding="UTF-8" standalone="no"?>
<!-- Generator: Adobe Illustrator 19.2.1, SVG Export Plug-In . SVG Version: 6.00 Build 0)  -->

<svg
   xmlns:dc="http://purl.org/dc/elements/1.1/"
   xmlns:cc="http://creativecommons.org/ns#"
   xmlns:rdf="http://www.w3.org/1999/02/22-rdf-syntax-ns#"
   xmlns:svg="http://www.w3.org/2000/svg"
   xmlns="http://www.w3.org/2000/svg"
   xmlns:sodipodi="http://sodipodi.sourceforge.net/DTD/sodipodi-0.dtd"
   xmlns:inkscape="http://www.inkscape.org/namespaces/inkscape"
   version="1.1"
   id="Layer_1"
   x="0px"
   y="0px"
   viewBox="0 0 109 150"
   style="enable-background:new 0 0 109 150;"
   xml:space="preserve"
   inkscape:version="0.91 r13725"
   sodipodi:docname="chat.svg"><metadata
     id="metadata83"><rdf:RDF><cc:Work
         rdf:about=""><dc:format>image/svg+xml</dc:format><dc:type
           rdf:resource="http://purl.org/dc/dcmitype/StillImage" /></cc:Work></rdf:RDF></metadata><defs
     id="defs81" /><sodipodi:namedview
     pagecolor="#ffffff"
     bordercolor="#666666"
     borderopacity="1"
     objecttolerance="10"
     gridtolerance="10"
     guidetolerance="10"
     inkscape:pageopacity="0"
     inkscape:pageshadow="2"
     inkscape:window-width="959"
     inkscape:window-height="1023"
     id="namedview79"
     showgrid="false"
     inkscape:zoom="3.1466667"
     inkscape:cx="52.876566"
     inkscape:cy="63.332773"
     inkscape:window-x="960"
     inkscape:window-y="0"
     inkscape:window-maximized="0"
     inkscape:current-layer="g7" /><style
     type="text/css"
     id="style3">
	.st0{display:none;fill:none;stroke:#FFFFFF;stroke-width:2;stroke-linecap:round;stroke-miterlimit:10;}
	.st1{fill:#A2F1FF;}
	.st2{fill:#FF868A;}
	.st3{fill:#FFFFFF;}
	.st4{fill:#58595B;}
	.st5{fill:#E5E6E7;}
	.st6{fill:#A3D3E3;}
	.st7{fill:#DD797F;}
	.st8{fill:#6D6E71;}
	.st9{fill:#4A4A4B;}
	.st10{fill:#414042;}
	.st11{fill:#E75C54;}
	.st12{fill:#FFE336;}
	.st13{fill:#56C681;}
	.st14{fill:#F37970;}
	.st15{fill:#FFEE85;}
	.st16{fill:#79D29B;}
	.st17{fill:#C44242;}
	.st18{fill:#FFBC13;}
	.st19{fill:#3AAB64;}
	.st20{fill:#4E4D4F;}
	.st21{fill:#63CF83;}
	.st22{fill:#FFE77A;}
	.st23{fill:#4FC37B;}
	.st24{fill:#FCDA71;}
</style><g
     id="g5"><g
       id="g7"><path
         class="st21"
         d="M107,94.25v46.47c0,4.02-3.26,7.28-7.28,7.28H33.28c-4.02,0-7.28-3.26-7.28-7.28V94.25    c0-4.03,3.26-7.29,7.28-7.29H35l9.95-11.72c0.85-1.7,3.29-1.64,4.05,0.1l1,11.62h49.72C103.74,86.96,107,90.22,107,94.25z M80,115    v-10c0-1.38-0.56-2.63-1.46-3.54c-0.91-0.9-2.16-1.46-3.54-1.46c-2.76,0-5,2.24-5,5v0.5v9.5H80z M63,115v-10    c0-1.38-0.56-2.63-1.46-3.54c-0.91-0.9-2.16-1.46-3.54-1.46c-2.76,0-5,2.24-5,5v0.5v9.5H63z"
         id="path9"
         style="opacity:0.98;fill:#00a6ed;fill-opacity:1" /><path
         class="st3"
         d="M80,105v10H70v-9.5c0,1.93,1.57,3.5,3.5,3.5s3.5-1.57,3.5-3.5s-1.57-3.5-3.5-3.5s-3.5,1.57-3.5,3.5V105    c0-2.76,2.24-5,5-5c1.38,0,2.63,0.56,3.54,1.46C79.44,102.37,80,103.62,80,105z"
         id="path11" /><path
         class="st3"
         d="M63,105v10H53v-9.5c0,1.93,1.57,3.5,3.5,3.5s3.5-1.57,3.5-3.5s-1.57-3.5-3.5-3.5s-3.5,1.57-3.5,3.5V105    c0-2.76,2.24-5,5-5c1.38,0,2.63,0.56,3.54,1.46C62.44,102.37,63,103.62,63,105z"
         id="path13" /><path
         class="st3"
         d="M56,25.5V30H46V20c0-2.76,2.24-5,5-5c1.38,0,2.63,0.56,3.54,1.46C55.44,17.37,56,18.62,56,20V25.5    c0-1.93-1.57-3.5-3.5-3.5S49,23.57,49,25.5s1.57,3.5,3.5,3.5S56,27.43,56,25.5z"
         id="path15" /><path
         class="st3"
         d="M39,25.5V30H29V20c0-2.76,2.24-5,5-5c1.38,0,2.63,0.56,3.54,1.46C38.44,17.37,39,18.62,39,20V25.5    c0-1.93-1.57-3.5-3.5-3.5S32,23.57,32,25.5s1.57,3.5,3.5,3.5S39,27.43,39,25.5z"
         id="path17" /><path
         class="st22"
         d="M83,9.28v46.47c0,4.03-3.26,7.29-7.28,7.29H74l-9.95,11.72c-0.85,1.7-3.29,1.64-4.05-0.1l-1-11.62H9.28    C5.26,63.04,2,59.78,2,55.75V9.28C2,5.26,5.26,2,9.28,2h66.44C79.74,2,83,5.26,83,9.28z M56,30v-4.5V20    c0-1.38-0.56-2.63-1.46-3.54C53.63,15.56,52.38,15,51,15c-2.76,0-5,2.24-5,5v10H56z M39,30v-4.5V20c0-1.38-0.56-2.63-1.46-3.54    C36.63,15.56,35.38,15,34,15c-2.76,0-5,2.24-5,5v10H39z"
         id="path19"
         style="fill:#f6ae2d;fill-opacity:1" /><g
         id="g21"><path
           class="st23"
           d="M39,140.72V94.25c0-4.03,3.26-7.29,7.28-7.29H48l1.816-2.139L49,75.34c-0.76-1.74-3.2-1.8-4.05-0.1     L35,86.96h-1.72c-4.02,0-7.28,3.26-7.28,7.29v46.47c0,4.02,3.26,7.28,7.28,7.28h13C42.26,148,39,144.74,39,140.72z"
           id="path23"
           style="fill:#0082b9;fill-opacity:1" /></g><g
         id="g25"><path
           class="st24"
           d="M15,55.75V9.28C15,5.26,18.26,2,22.28,2h-13C5.26,2,2,5.26,2,9.28v46.47c0,4.03,3.26,7.29,7.28,7.29h13     C18.26,63.04,15,59.78,15,55.75z"
           id="path27"
           style="fill:#e2940a;fill-opacity:1" /></g><g
         id="g29"><path
           class="st5"
           d="M49,25.5c0-0.95,0.383-1.811,1-2.442V20c0-2.048,1.237-3.805,3.001-4.578C52.387,15.154,51.712,15,51,15     c-2.76,0-5,2.24-5,5v10h4v-2.058C49.383,27.311,49,26.45,49,25.5z"
           id="path31" /></g><g
         id="g33"><path
           class="st5"
           d="M32,25.5c0-0.95,0.383-1.811,1-2.442V20c0-2.048,1.237-3.805,3.001-4.578C35.387,15.154,34.712,15,34,15     c-2.76,0-5,2.24-5,5v10h4v-2.058C32.383,27.311,32,26.45,32,25.5z"
           id="path35" /></g><g
         id="g37"><path
           class="st5"
           d="M73.5,109c-1.93,0-3.5-1.57-3.5-3.5v9.5h4v-6.051C73.835,108.973,73.671,109,73.5,109z"
           id="path39" /><path
           class="st5"
           d="M73.5,102c0.468,0,0.914,0.096,1.323,0.263c0.53-0.807,1.285-1.45,2.178-1.841     C76.387,100.154,75.712,100,75,100c-2.76,0-5,2.24-5,5v0.5C70,103.57,71.57,102,73.5,102z"
           id="path41" /></g><g
         id="g43"><path
           class="st5"
           d="M56.5,109c-1.93,0-3.5-1.57-3.5-3.5v9.5h4v-6.051C56.835,108.973,56.671,109,56.5,109z"
           id="path45" /><path
           class="st5"
           d="M56.5,102c0.468,0,0.914,0.096,1.323,0.263c0.53-0.807,1.285-1.45,2.178-1.841     C59.387,100.154,58.712,100,58,100c-2.76,0-5,2.24-5,5v0.5C53,103.57,54.57,102,56.5,102z"
           id="path47" /></g></g><g
       id="g49"><path
         class="st10"
         d="M58.008,74.832c0.019,0.217,0.072,0.429,0.159,0.629c0.665,1.523,2.109,2.496,3.77,2.539    c0.038,0.001,0.076,0.002,0.114,0.002c1.523,0,2.895-0.793,3.656-2.103l9.219-10.858h0.794c5.117,0,9.28-4.167,9.28-9.29V9.28    C85,4.163,80.837,0,75.72,0H9.28C4.163,0,0,4.163,0,9.28v46.47c0,5.123,4.163,9.29,9.28,9.29h47.885L58.008,74.832z M4,55.75V9.28    C4,6.369,6.369,4,9.28,4H75.72C78.631,4,81,6.369,81,9.28v46.47c0,2.917-2.369,5.29-5.28,5.29H74    c-0.587,0-1.145,0.258-1.524,0.706l-9.95,11.72c-0.104,0.123-0.193,0.257-0.265,0.4c-0.022,0.044-0.067,0.135-0.212,0.135    c-0.038-0.001-0.073-0.007-0.1-0.017l-0.957-11.115C60.903,61.834,60.038,61.04,59,61.04H9.28C6.369,61.04,4,58.667,4,55.75z"
         id="path51" /><path
         class="st10"
         d="M78,69v7c0,1.104,0.896,2,2,2s2-0.896,2-2v-7c0-1.104-0.896-2-2-2S78,67.896,78,69z"
         id="path53" /><path
         class="st10"
         d="M90.5,60h7c1.104,0,2-0.896,2-2s-0.896-2-2-2h-7c-1.104,0-2,0.896-2,2S89.396,60,90.5,60z"
         id="path55" /><path
         class="st10"
         d="M90.586,71.364c0.391,0.391,0.902,0.586,1.414,0.586s1.023-0.195,1.414-0.586    c0.781-0.781,0.781-2.047,0-2.828l-4.95-4.95c-0.781-0.781-2.047-0.781-2.828,0c-0.781,0.781-0.781,2.047,0,2.828L90.586,71.364z"
         id="path57" /><path
         class="st10"
         d="M99.72,84.96H51.835l-0.843-9.792c-0.019-0.217-0.072-0.43-0.159-0.629c-0.665-1.523-2.109-2.496-3.77-2.539    c-1.546-0.038-2.99,0.758-3.771,2.101L34.074,84.96H33.28c-5.117,0-9.28,4.168-9.28,9.29v46.47c0,5.117,4.163,9.28,9.28,9.28    H99.72c5.117,0,9.28-4.163,9.28-9.28V94.25C109,89.128,104.837,84.96,99.72,84.96z M105,140.72c0,2.911-2.369,5.28-5.28,5.28    H33.28c-2.911,0-5.28-2.369-5.28-5.28V94.25c0-2.917,2.369-5.29,5.28-5.29H35c0.587,0,1.145-0.258,1.524-0.706l9.95-11.72    c0.104-0.122,0.193-0.256,0.265-0.4C46.762,76.09,46.807,76,46.951,76c0.038,0.003,0.073,0.006,0.1,0.017l0.957,11.115    c0.089,1.034,0.954,1.828,1.992,1.828h49.72c2.911,0,5.28,2.373,5.28,5.29V140.72z"
         id="path59" /><path
         class="st10"
         d="M27,74v7c0,1.104,0.896,2,2,2s2-0.896,2-2v-7c0-1.104-0.896-2-2-2S27,72.896,27,74z"
         id="path61" /><path
         class="st10"
         d="M18.5,90h-7c-1.104,0-2,0.896-2,2s0.896,2,2,2h7c1.104,0,2-0.896,2-2S19.604,90,18.5,90z"
         id="path63" /><path
         class="st10"
         d="M18.414,78.636c-0.781-0.781-2.047-0.781-2.828,0s-0.781,2.047,0,2.828l4.95,4.95    C20.927,86.805,21.438,87,21.95,87s1.023-0.195,1.414-0.586c0.781-0.781,0.781-2.047,0-2.828L18.414,78.636z"
         id="path65" /><path
         class="st10"
         d="M29,32h10c1.104,0,2-0.896,2-2V20c0-1.861-0.724-3.618-2.054-4.962C37.617,13.724,35.86,13,34,13    c-3.859,0-7,3.14-7,7v10C27,31.104,27.896,32,29,32z M31,20c0-1.654,1.346-3,3-3c0.801,0,1.559,0.313,2.118,0.867    C36.687,18.441,37,19.199,37,20v2.351C36.544,22.133,36.039,22,35.5,22c-1.93,0-3.5,1.57-3.5,3.5c0,0.98,0.407,1.864,1.058,2.5H31    V20z"
         id="path67" /><path
         class="st10"
         d="M46,32h10c1.104,0,2-0.896,2-2V20c0-1.861-0.724-3.618-2.054-4.962C54.617,13.724,52.86,13,51,13    c-3.859,0-7,3.14-7,7v10C44,31.104,44.896,32,46,32z M48,20c0-1.654,1.346-3,3-3c0.801,0,1.559,0.313,2.118,0.867    C53.687,18.441,54,19.199,54,20v2.351C53.544,22.133,53.039,22,52.5,22c-1.93,0-3.5,1.57-3.5,3.5c0,0.98,0.407,1.864,1.058,2.5H48    V20z"
         id="path69" /><path
         class="st10"
         d="M64.169,38.934c0.516-0.977,0.143-2.187-0.835-2.703c-0.979-0.516-2.188-0.142-2.702,0.834    C57.07,43.811,50.123,48,42.5,48s-14.57-4.189-18.132-10.934c-0.516-0.976-1.725-1.35-2.702-0.834s-1.351,1.726-0.835,2.703    C25.087,46.993,33.39,52,42.5,52S59.913,46.993,64.169,38.934z"
         id="path71" /><path
         class="st10"
         d="M53,117h10c1.104,0,2-0.896,2-2v-10c0-1.861-0.724-3.618-2.054-4.962C61.618,98.724,59.861,98,58,98    c-3.859,0-7,3.141-7,7v10C51,116.104,51.896,117,53,117z M60.118,102.866C60.687,103.441,61,104.199,61,105v8h-6v-4.351    c0.456,0.218,0.961,0.351,1.5,0.351c1.93,0,3.5-1.57,3.5-3.5c0-1.66-1.164-3.046-2.716-3.404C57.515,102.039,57.752,102,58,102    C58.801,102,59.559,102.313,60.118,102.866z"
         id="path73" /><path
         class="st10"
         d="M70,117h10c1.104,0,2-0.896,2-2v-10c0-1.861-0.724-3.618-2.054-4.962C78.618,98.724,76.861,98,75,98    c-3.859,0-7,3.141-7,7v10C68,116.104,68.896,117,70,117z M77.118,102.866C77.687,103.441,78,104.199,78,105v8h-6v-4.351    c0.456,0.218,0.961,0.351,1.5,0.351c1.93,0,3.5-1.57,3.5-3.5c0-1.66-1.164-3.046-2.716-3.404C74.515,102.039,74.752,102,75,102    C75.801,102,76.559,102.313,77.118,102.866z"
         id="path75" /><path
         class="st10"
         d="M87.334,121.231c-0.978-0.516-2.187-0.143-2.702,0.835C81.07,128.811,74.122,133,66.5,133    s-14.57-4.189-18.132-10.934c-0.516-0.978-1.724-1.351-2.702-0.835c-0.978,0.516-1.351,1.726-0.835,2.702    C49.087,131.993,57.391,137,66.5,137s17.413-5.007,21.669-13.066C88.685,122.957,88.312,121.747,87.334,121.231z"
         id="path77" /></g></g></svg>