<?xml version="1.0" encoding="UTF-8" standalone="no"?>
<!-- Generator: Adobe Illustrator 19.2.1, SVG Export Plug-In . SVG Version: 6.00 Build 0)  -->

<svg
   xmlns:dc="http://purl.org/dc/elements/1.1/"
   xmlns:cc="http://creativecommons.org/ns#"
   xmlns:rdf="http://www.w3.org/1999/02/22-rdf-syntax-ns#"
   xmlns:svg="http://www.w3.org/2000/svg"
   xmlns="http://www.w3.org/2000/svg"
   xmlns:sodipodi="http://sodipodi.sourceforge.net/DTD/sodipodi-0.dtd"
   xmlns:inkscape="http://www.inkscape.org/namespaces/inkscape"
   version="1.1"
   id="Layer_1"
   x="0px"
   y="0px"
   viewBox="0 0 127 150.002"
   style="enable-background:new 0 0 127 150.002;"
   xml:space="preserve"
   inkscape:version="0.91 r13725"
   sodipodi:docname="lighthouse.svg"><metadata
     id="metadata46"><rdf:RDF><cc:Work
         rdf:about=""><dc:format>image/svg+xml</dc:format><dc:type
           rdf:resource="http://purl.org/dc/dcmitype/StillImage" /></cc:Work></rdf:RDF></metadata><defs
     id="defs44" /><sodipodi:namedview
     pagecolor="#ffffff"
     bordercolor="#666666"
     borderopacity="1"
     objecttolerance="10"
     gridtolerance="10"
     guidetolerance="10"
     inkscape:pageopacity="0"
     inkscape:pageshadow="2"
     inkscape:window-width="1920"
     inkscape:window-height="1024"
     id="namedview42"
     showgrid="false"
     inkscape:zoom="4.4499994"
     inkscape:cx="22.448921"
     inkscape:cy="71.866224"
     inkscape:window-x="0"
     inkscape:window-y="0"
     inkscape:window-maximized="1"
     inkscape:current-layer="Layer_1" /><style
     type="text/css"
     id="style3">
	.st0{display:none;fill:none;stroke:#FFFFFF;stroke-width:2;stroke-linecap:round;stroke-miterlimit:10;}
	.st1{fill:#D5D2E4;}
	.st2{fill:#43324E;}
	.st3{fill:#FFFFFF;}
	.st4{fill:#ECEDED;}
	.st5{fill:#E1E2E3;}
	.st6{fill:url(#SVGID_1_);}
	.st7{fill:url(#SVGID_2_);}
	.st8{fill:#414042;}
	.st9{fill:#96806A;}
	.st10{fill:#EDDFC7;}
	.st11{fill:#594A42;}
	.st12{fill:#E81C24;}
	.st13{fill:#00ADFF;}
	.st14{fill:#FFDFD7;}
	.st15{fill:#A63E45;}
	.st16{fill:#328BE7;}
	.st17{fill:#49CA8F;}
	.st18{fill:#58595B;}
	.st19{fill:#FF8BA5;}
	.st20{fill:#EFF0F0;}
	.st21{fill:#978278;}
	.st22{fill:#CED0D1;}
	.st23{fill:#FFC877;}
	.st24{fill:#6866A4;}
	.st25{fill:#A0DEFF;}
	.st26{fill:#FF4E00;}
	.st27{fill:#0068A8;}
	.st28{fill:#21405D;}
	.st29{fill:#991F63;}
	.st30{fill:#881F63;}
	.st31{fill:#BF956C;}
	.st32{fill:#AE865F;}
	.st33{fill:#E0312B;}
	.st34{fill:#E6E6E6;}
	.st35{fill:#B4B6B7;}
	.st36{fill:#BD2C25;}
	.st37{fill:#2F2E30;}
	.st38{fill:#231F20;}
	.st39{fill:#FFCDED;}
	.st40{fill:#FFBBED;}
	.st41{fill:#FFE98C;}
	.st42{fill:#695E98;}
	.st43{fill:#CCCECF;}
	.st44{fill:#C5625D;}
	.st45{fill:#FFACAE;}
	.st46{fill:#414141;}
	.st47{fill:#006ED9;}
	.st48{fill:#38A1F2;}
	.st49{fill:#47A9F3;}
	.st50{fill:#80BFCF;}
	.st51{fill:#8DCDDC;}
	.st52{fill:#2498F0;}
	.st53{fill:#2B398B;}
	.st54{fill:#BDB096;}
	.st55{fill:#A39983;}
	.st56{fill:#FF868A;}
	.st57{fill:#E97279;}
	.st58{fill:#E75C54;}
	.st59{fill:#726658;}
	.st60{fill:#D2DCD8;}
	.st61{fill:#FFC36B;}
	.st62{fill:#E1F3F4;}
	.st63{fill:#FFA54C;}
	.st64{fill:#ED7F3A;}
	.st65{fill:#E79FA3;}
	.st66{fill:#E5E6E7;}
	.st67{fill:#B5DCE9;}
	.st68{fill:#95D3EF;}
	.st69{fill:#808080;}
</style><g
     id="g5"
     transform="translate(-6.9419297,0)"><g
       id="XMLID_6_"><g
         id="g8"><path
           class="st43"
           d="m 116,120 4.4,26.55 0.07,0.14 c -4.3,2.07 -9.54,1.46 -13.35,-1.69 -4.59,3.9 -11.32,3.82 -15.95,0 -4.62,3.9 -11.38,3.82 -16.05,0 -4.61,3.9 -11.38,3.82 -16.04,0 L 63,131 78,123 86.84,114.17 96,105 l 20,15 z"
           id="path10"
           inkscape:connector-curvature="0"
           style="fill:#cccecf" /><path
           class="st65"
           d="m 45.47,146 5.13,-94 4.4,0 8,0 8,0 8,0 4.4,0 3.27,62 0.17,0.17 -8.84,8.83 -15,8 -3.92,14 c -4.04,3.41 -9.72,3.78 -14.2,1.26 L 45.47,146 Z M 73,92 73,73 C 73,71.34 72.33,69.84 71.24,68.76 70.16,67.67 68.66,67 67,67 c -3.31,0 -6,2.69 -6,6 l 0,19 12,0 z"
           id="path12"
           inkscape:connector-curvature="0"
           style="fill:#e79fa3" /><polygon
           class="st66"
           points="87,52 83.4,52 79,52 79,43 83,43 87,43 "
           id="polygon14"
           style="fill:#e5e6e7" /><polygon
           class="st67"
           points="83,43 79,43 76,43 76,25 83,25 "
           id="polygon16"
           style="fill:#b5dce9" /><polygon
           class="st66"
           points="76,25 58,25 51,25 67,10 83,25 "
           id="polygon18"
           style="fill:#e5e6e7" /><polygon
           class="st66"
           points="79,52 71,52 71,43 76,43 79,43 "
           id="polygon20"
           style="fill:#e5e6e7" /><polygon
           class="st68"
           points="76,43 71,43 63,43 58,43 58,25 76,25 "
           id="polygon22"
           style="fill:#95d3ef" /><path
           class="st68"
           d="m 73,73 0,19 -12,0 0,-19 c 0,-3.31 2.69,-6 6,-6 1.66,0 3.16,0.67 4.24,1.76 C 72.33,69.84 73,71.34 73,73 Z"
           id="path24"
           inkscape:connector-curvature="0"
           style="fill:#95d3ef" /><rect
           x="63"
           y="43"
           class="st66"
           width="8"
           height="9"
           id="rect26"
           style="fill:#e5e6e7" /><polygon
           class="st66"
           points="63,52 55,52 55,43 58,43 63,43 "
           id="polygon28"
           style="fill:#e5e6e7" /><polygon
           class="st67"
           points="58,43 55,43 51,43 51,25 58,25 "
           id="polygon30"
           style="fill:#b5dce9" /><polygon
           class="st66"
           points="55,52 50.6,52 47,52 47,43 51,43 55,43 "
           id="polygon32"
           style="fill:#e5e6e7" /></g></g><g
       id="g34"
       transform="translate(-2,0)"><path
         class="st69"
         d="m 61,94 12,0 c 1.104,0 2,-0.896 2,-2 L 75,73 C 75,70.853 74.165,68.843 72.661,67.353 71.158,65.835 69.148,65 67,65 c -4.411,0 -8,3.589 -8,8 l 0,19 c 0,1.104 0.896,2 2,2 z m 2,-21 c 0,-2.206 1.794,-4 4,-4 1.072,0 2.073,0.415 2.832,1.181 C 70.585,70.927 71,71.928 71,73 l 0,17 -8,0 0,-17 z"
         id="path36"
         style="fill:#57595b;fill-opacity:1"
         inkscape:connector-curvature="0" /><path
         class="st69"
         d="m 124.591,143.702 c -0.683,-0.8 -1.852,-0.921 -2.688,-0.314 l -3.93,-23.715 c -0.084,-0.508 -0.36,-0.964 -0.772,-1.272 l -20,-15 c -0.797,-0.598 -1.911,-0.519 -2.615,0.187 L 88.448,109.726 85.508,54 87,54 c 1.104,0 2,-0.896 2,-2 l 0,-9 c 0,-1.104 -0.896,-2 -2,-2 l -2,0 0,-16 C 85,24.99 84.997,24.98 84.997,24.97 84.996,24.89 84.984,24.811 84.973,24.731 84.966,24.68 84.964,24.627 84.953,24.577 84.938,24.507 84.912,24.439 84.889,24.371 84.871,24.316 84.858,24.26 84.835,24.207 84.809,24.147 84.773,24.091 84.741,24.033 84.71,23.977 84.683,23.919 84.647,23.867 84.615,23.82 84.574,23.778 84.537,23.733 84.49,23.676 84.444,23.617 84.391,23.565 84.383,23.557 84.378,23.548 84.37,23.541 L 69,9.133 69,2 C 69,0.896 68.104,0 67,0 65.896,0 65,0.896 65,2 l 0,7.133 -15.368,14.408 c -0.008,0.008 -0.013,0.017 -0.021,0.024 -0.053,0.052 -0.099,0.111 -0.146,0.168 -0.037,0.045 -0.078,0.087 -0.11,0.134 -0.036,0.052 -0.063,0.11 -0.094,0.166 -0.032,0.058 -0.068,0.114 -0.094,0.174 -0.023,0.052 -0.036,0.109 -0.054,0.164 -0.023,0.069 -0.049,0.136 -0.064,0.206 -0.011,0.05 -0.013,0.103 -0.02,0.154 -0.011,0.08 -0.023,0.159 -0.024,0.239 C 49.003,24.98 49,24.99 49,25 l 0,16 -2,0 c -1.104,0 -2,0.896 -2,2 l 0,9 c 0,1.104 0.896,2 2,2 l 1.487,0 -4.862,89.094 c -0.014,-0.004 -0.027,-0.011 -0.041,-0.015 -0.092,-0.026 -0.187,-0.04 -0.281,-0.053 -0.032,-0.004 -0.063,-0.014 -0.095,-0.017 -0.123,-0.011 -0.246,-0.009 -0.369,0.002 -0.004,0 -0.007,0 -0.011,0 -0.119,0.012 -0.237,0.037 -0.353,0.07 -0.008,0.002 -0.016,0.003 -0.024,0.005 -0.089,0.027 -0.175,0.067 -0.26,0.107 -0.034,0.016 -0.069,0.026 -0.102,0.043 -0.064,0.034 -0.124,0.081 -0.185,0.123 -0.049,0.034 -0.101,0.062 -0.147,0.101 -0.006,0.005 -0.012,0.008 -0.018,0.012 -3.837,3.245 -9.511,3.236 -13.492,-0.021 -0.005,-0.004 -0.011,-0.006 -0.016,-0.01 -0.073,-0.059 -0.152,-0.105 -0.231,-0.152 -0.034,-0.02 -0.066,-0.046 -0.101,-0.064 -0.087,-0.045 -0.178,-0.078 -0.27,-0.109 -0.031,-0.011 -0.061,-0.027 -0.092,-0.036 -0.096,-0.028 -0.194,-0.043 -0.292,-0.056 -0.029,-0.004 -0.057,-0.013 -0.085,-0.016 -0.101,-0.009 -0.202,-0.005 -0.303,10e-4 -0.027,0.002 -0.053,-0.002 -0.08,0.001 -0.085,0.009 -0.169,0.03 -0.253,0.05 -0.042,0.01 -0.085,0.014 -0.126,0.026 -0.059,0.018 -0.114,0.046 -0.171,0.07 -0.065,0.026 -0.131,0.049 -0.193,0.082 -0.039,0.021 -0.074,0.05 -0.111,0.073 -0.076,0.047 -0.152,0.094 -0.221,0.152 -0.004,0.003 -0.009,0.006 -0.013,0.009 -3.837,3.244 -9.507,3.237 -13.48,-0.021 -0.852,-0.698 -2.113,-0.575 -2.814,0.279 -0.7,0.854 -0.575,2.114 0.279,2.814 2.729,2.237 6.045,3.355 9.343,3.355 2.798,0 5.579,-0.815 7.98,-2.425 2.458,1.611 5.269,2.424 8.068,2.424 2.8,0 5.581,-0.815 7.983,-2.424 0.282,0.185 0.565,0.366 0.853,0.526 2.243,1.263 4.728,1.882 7.193,1.882 2.822,0 5.614,-0.821 7.999,-2.409 2.455,1.612 5.264,2.426 8.064,2.426 2.798,0 5.579,-0.815 7.981,-2.425 2.456,1.608 5.264,2.42 8.064,2.42 2.797,0 5.578,-0.812 7.98,-2.418 2.441,1.61 5.232,2.423 8.016,2.423 2.782,0 5.548,-0.813 7.938,-2.421 2.414,1.588 5.212,2.415 8.022,2.415 2.108,0 4.222,-0.461 6.177,-1.402 1.091,-0.521 2.111,-1.186 3.034,-1.973 0.839,-0.713 0.939,-1.975 0.222,-2.816 z M 73,50 l 0,-5 4,0 0,5 -4,0 z m -8,0 0,-5 4,0 0,5 -4,0 z m -8,0 0,-5 4,0 0,5 -4,0 z M 67,12.742 77.942,23 56.058,23 67,12.742 Z M 74,27 l 0,14 -14,0 0,-14 14,0 z m 7,18 4,0 0,5 -4,0 0,-5 z m -3,-4 0,-14 3,0 0,14 -3,0 z m -25,-14 3,0 0,14 -3,0 0,-14 z m -4,18 4,0 0,5 -4,0 0,-5 z M 47.513,145.262 52.494,54 l 29.009,0 3.14,59.529 -7.846,7.846 -14.738,7.86 c -0.481,0.257 -0.837,0.699 -0.984,1.226 l -3.743,13.368 c -2.795,2.095 -6.504,2.613 -9.819,1.433 z m 60.882,-1.803 c -0.006,-0.005 -0.013,-0.008 -0.02,-0.013 -0.064,-0.052 -0.134,-0.093 -0.203,-0.136 -0.044,-0.028 -0.087,-0.06 -0.132,-0.084 -0.062,-0.032 -0.127,-0.054 -0.191,-0.079 -0.058,-0.023 -0.115,-0.05 -0.174,-0.067 -0.056,-0.016 -0.114,-0.022 -0.171,-0.034 -0.069,-0.014 -0.138,-0.031 -0.208,-0.037 -0.057,-0.005 -0.115,0 -0.172,0 -0.07,0 -0.14,-0.004 -0.21,0.003 -0.061,0.006 -0.119,0.023 -0.179,0.034 -0.066,0.013 -0.132,0.022 -0.197,0.041 -0.056,0.017 -0.11,0.044 -0.165,0.066 -0.066,0.027 -0.133,0.05 -0.196,0.083 -0.049,0.026 -0.094,0.062 -0.141,0.092 -0.064,0.042 -0.129,0.081 -0.189,0.131 -0.007,0.006 -0.015,0.009 -0.022,0.015 -3.813,3.241 -9.44,3.232 -13.383,-0.019 -0.006,-0.005 -0.012,-0.007 -0.018,-0.012 -0.059,-0.047 -0.123,-0.084 -0.186,-0.124 -0.051,-0.032 -0.099,-0.069 -0.151,-0.097 -0.049,-0.025 -0.102,-0.042 -0.153,-0.063 -0.07,-0.029 -0.14,-0.062 -0.212,-0.083 -0.039,-0.011 -0.079,-0.014 -0.118,-0.023 -0.086,-0.019 -0.172,-0.039 -0.26,-0.047 -0.043,-0.004 -0.087,0.001 -0.131,0 -0.083,-0.002 -0.167,-0.006 -0.25,0.003 -0.056,0.006 -0.111,0.022 -0.167,0.032 -0.07,0.013 -0.141,0.023 -0.209,0.043 -0.056,0.017 -0.11,0.044 -0.165,0.067 -0.066,0.026 -0.133,0.049 -0.196,0.083 -0.049,0.026 -0.094,0.062 -0.141,0.092 -0.065,0.042 -0.13,0.081 -0.19,0.13 -0.006,0.005 -0.012,0.008 -0.018,0.013 -3.842,3.243 -9.517,3.233 -13.493,-0.02 -0.004,-0.004 -0.009,-0.006 -0.014,-0.009 -0.075,-0.06 -0.156,-0.109 -0.237,-0.157 -0.032,-0.019 -0.063,-0.044 -0.096,-0.061 -0.081,-0.042 -0.166,-0.072 -0.252,-0.102 -0.038,-0.013 -0.074,-0.033 -0.112,-0.044 -0.078,-0.023 -0.158,-0.033 -0.238,-0.045 -0.047,-0.008 -0.094,-0.021 -0.141,-0.026 -0.076,-0.007 -0.151,-0.001 -0.228,0.001 -0.052,0.001 -0.104,-0.003 -0.156,0.002 -0.068,0.007 -0.134,0.026 -0.201,0.04 -0.059,0.012 -0.119,0.019 -0.177,0.037 -0.053,0.016 -0.103,0.042 -0.154,0.063 -0.07,0.028 -0.141,0.052 -0.208,0.088 -0.043,0.023 -0.083,0.056 -0.125,0.083 -0.07,0.044 -0.14,0.086 -0.204,0.14 -0.005,0.004 -0.011,0.007 -0.016,0.011 -3.515,2.974 -8.566,3.208 -12.446,0.721 l 3.313,-11.832 14.246,-7.598 c 0.174,-0.093 0.333,-0.211 0.472,-0.35 l 16.775,-16.773 17.97,13.477 4.031,24.324 c -3.316,1.025 -7.023,0.309 -9.791,-1.98 z"
         id="path40"
         style="fill:#57595b;fill-opacity:1"
         inkscape:connector-curvature="0" /></g></g></svg>