<?xml version="1.0" encoding="UTF-8"?>
<!-- Generator: Adobe Illustrator 19.2.1, SVG Export Plug-In . SVG Version: 6.00 Build 0)  -->
<svg version="1.1" id="Layer_1" xmlns="http://www.w3.org/2000/svg" xmlns:xlink="http://www.w3.org/1999/xlink" x="0px" y="0px" viewBox="0 0 190 150" style="enable-background:new 0 0 190 150;" xml:space="preserve">
<style type="text/css">
	.st0{display:none;fill:none;stroke:#FFFFFF;stroke-width:2;stroke-linecap:round;stroke-miterlimit:10;}
	.st1{fill:#A2F1FF;}
	.st2{fill:#FF868A;}
	.st3{fill:#FFFFFF;}
	.st4{fill:#58595B;}
	.st5{fill:#E5E6E7;}
	.st6{fill:#A3D3E3;}
	.st7{fill:#DD797F;}
	.st8{fill:#6D6E71;}
	.st9{fill:#4A4A4B;}
	.st10{fill:#414042;}
	.st11{fill:#E75C54;}
	.st12{fill:#FFE336;}
	.st13{fill:#56C681;}
	.st14{fill:#F37970;}
	.st15{fill:#FFEE85;}
	.st16{fill:#79D29B;}
	.st17{fill:#C44242;}
	.st18{fill:#FFBC13;}
	.st19{fill:#3AAB64;}
	.st20{fill:#4E4D4F;}
	.st21{fill:#63CF83;}
	.st22{fill:#FFE77A;}
	.st23{fill:#4FC37B;}
	.st24{fill:#FCDA71;}
	.st25{fill:#F0F1F1;}
	.st26{fill:#E38026;}
	.st27{fill:#BBBDBF;}
	.st28{fill:#7CC9B4;}
	.st29{fill:#8BDBC7;}
	.st30{fill:#3EBDA4;}
	.st31{fill:#4E706E;}
	.st32{fill:#3EAD95;}
	.st33{fill:#BA9C44;}
	.st34{fill:#B0933E;}
	.st35{fill:#F2C84C;}
	.st36{fill:#3A3A3B;}
	.st37{fill:#EF5E90;}
	.st38{fill:#363637;}
	.st39{fill:#A87C50;}
	.st40{fill:#594A42;}
	.st41{fill:#FFFDE7;}
	.st42{fill:#CAA94C;}
	.st43{fill:#D0D2D3;}
	.st44{fill:#8F6A44;}
	.st45{fill:#483B34;}
	.st46{fill:#AE923D;}
	.st47{fill:#D9D9CA;}
	.st48{fill:#BB3D45;}
	.st49{fill:#42362F;}
	.st50{fill:#10CD88;}
	.st51{fill:#166BFF;}
	.st52{fill:#FDEA41;}
	.st53{fill:#FDE140;}
	.st54{fill:#FDCF3E;}
	.st55{fill:#FFB13F;}
	.st56{fill:#FFE65D;}
	.st57{fill:#FF8432;}
	.st58{fill:#3B4B92;}
	.st59{fill:#69CA6D;}
	.st60{fill:#54C16D;}
	.st61{fill:#32A373;}
	.st62{fill:#00D869;}
	.st63{fill:#00AB65;}
	.st64{fill:#00912A;}
	.st65{fill:#D6AF67;}
	.st66{fill:#8F8056;}
	.st67{fill:#4C4D4F;}
	.st68{fill:#B19254;}
	.st69{fill:#56585A;}
	.st70{fill:#7E724C;}
	.st71{fill:#1A8200;}
	.st72{fill:#2F6000;}
	.st73{fill:#053100;}
	.st74{fill:#092400;}
	.st75{fill:#011200;}
	.st76{fill:#788BD0;}
	.st77{fill:#2E2A2B;}
	.st78{fill:#393435;}
	.st79{fill:#231F20;}
	.st80{fill:#FFA323;}
	.st81{fill:#FFB124;}
	.st82{fill:#FF8F19;}
	.st83{fill:#76B620;}
	.st84{fill:#9CBE47;}
	.st85{fill:#F9DF37;}
	.st86{fill:#F9CC37;}
	.st87{fill:#7C9C47;}
	.st88{fill:#807947;}
	.st89{fill:#C6A66C;}
	.st90{fill:#B89B65;}
	.st91{fill:#493C35;}
	.st92{fill:#FFFFE8;}
	.st93{fill:#FFF8D6;}
	.st94{fill:#603913;}
	.st95{fill:#4C4B4D;}
	.st96{fill:#E4E5E6;}
	.st97{fill:#6C6D6F;}
	.st98{fill:#93DBAE;}
	.st99{fill:#EFF0F0;}
	.st100{fill:#CFD1D2;}
	.st101{fill:#FFE98C;}
	.st102{fill:#FFD76C;}
	.st103{fill:#8C97D8;}
	.st104{fill:#1CC7C7;}
	.st105{fill:#CC66B6;}
	.st106{fill:#CD7EC5;}
	.st107{fill:#E598D9;}
	.st108{fill:#A5A7AA;}
	.st109{fill:#D281C2;}
	.st110{fill:#B859A0;}
	.st111{fill:#BD73BB;}
	.st112{fill:#BABCBE;}
	.st113{fill:#646467;}
	.st114{fill:#7385C6;}
	.st115{fill:#919396;}
	.st116{fill:#F0EFDE;}
	.st117{fill:#C1D4D9;}
	.st118{fill:#A2BEC7;}
	.st119{fill:#D8C7A9;}
	.st120{fill:#C8B89D;}
	.st121{fill:#DFDCC3;}
	.st122{fill:#856F6F;}
	.st123{fill:#808083;}
	.st124{fill:#FFCF75;}
	.st125{fill:#FFBE4B;}
	.st126{fill:#6C6D70;}
	.st127{fill:#FF956B;}
	.st128{fill:#FF795F;}
	.st129{fill:#82CD75;}
	.st130{fill:#55C05B;}
	.st131{fill:#5784D5;}
	.st132{fill:#3E73D5;}
	.st133{fill:#EF83A3;}
	.st134{fill:#EB6495;}
	.st135{fill:#B193CC;}
	.st136{fill:#9C80CC;}
	.st137{fill:#59595B;}
	.st138{fill:#6D574E;}
	.st139{fill:#634E45;}
	.st140{fill:#59453E;}
	.st141{fill:#4C3D36;}
	.st142{fill:#FFA88E;}
	.st143{fill:#CCA080;}
	.st144{fill:#A28F86;}
	.st145{fill:#AFC083;}
	.st146{fill:#B79073;}
	.st147{fill:#9DAC77;}
	.st148{fill:#8F7F77;}
	.st149{fill:#D99480;}
	.st150{fill:#EAD682;}
	.st151{fill:#7C6F72;}
	.st152{fill:#69F298;}
	.st153{fill:#3AD076;}
	.st154{fill:#2A885A;}
	.st155{fill:#BC2A1B;}
	.st156{fill:#A5A8AB;}
	.st157{fill:#49484A;}
	.st158{fill:#9B8370;}
	.st159{fill:#806E5C;}
	.st160{fill:#2B2B2C;}
	.st161{fill:#1E191A;}
	.st162{fill:#A87D4F;}
	.st163{fill:#9B6A3C;}
	.st164{fill:#7FB473;}
	.st165{fill:#52B374;}
	.st166{fill:#35A563;}
	.st167{fill:#6DA35E;}
	.st168{fill:#57595B;}
</style>
<g>
	<g>
		<polygon class="st162" points="72,98 72,111 86,111 93,111 147,111 154,111 168,111 168,98 154,98 147,98 93,98 86,98   "/>
		<polygon class="st162" points="72,78 72,91 86,91 93,91 147,91 154,91 168,91 168,78   "/>
		<rect x="72" y="104" class="st163" width="96" height="7"/>
		<rect x="72" y="84" class="st163" width="96" height="7"/>
		<path class="st164" d="M62.9,148c-2.95-9.01-11.42-15.51-21.41-15.51c-5.06,0-9.74,1.67-13.49,4.5    c-3.67,2.74-6.46,6.57-7.91,11.01"/>
		<path class="st165" d="M28,116c14.36,0,26-11.64,26-26c0-8.61-4.19-16.23-10.63-20.97c3.18-3.61,5.13-8.34,5.13-13.53    c0-7.25-3.77-13.61-9.46-17.25c1.55-2.2,2.46-4.86,2.46-7.75C41.5,23.04,35.46,17,28,17s-13.5,6.04-13.5,13.5    c0,2.89,0.91,5.55,2.46,7.75c-5.69,3.64-9.46,10-9.46,17.25c0,5.19,1.95,9.92,5.13,13.53C6.19,73.77,2,81.39,2,90    C2,104.36,13.64,116,28,116z"/>
		<rect x="65" y="123" class="st162" width="110" height="9"/>
		<rect x="86" y="132" class="st162" width="7" height="16"/>
		<rect x="86" y="111" class="st162" width="7" height="12"/>
		<rect x="86" y="91" class="st163" width="7" height="7"/>
		<rect x="147" y="132" class="st162" width="7" height="16"/>
		<rect x="147" y="111" class="st162" width="7" height="12"/>
		<rect x="147" y="91" class="st163" width="7" height="7"/>
		<path class="st166" d="M13,90c0-6.898,2.689-13.16,7.07-17.815c1.753-1.863,2.193-4.611,0.959-6.852    C19.421,62.415,18.5,59.066,18.5,55.5c0-5.749,2.371-10.939,6.19-14.656c1.605-1.562,2.252-3.884,1.527-6.003    C25.752,33.48,25.5,32.022,25.5,30.5c0-5.499,3.287-10.217,8-12.323c-2.223-0.993-4.756-1.419-7.428-1.041    C19.903,18.01,15.04,23.18,14.544,29.391c-0.265,3.318,0.669,6.38,2.416,8.859c-5.69,3.64-9.46,10-9.46,17.25    c0,5.19,1.95,9.92,5.13,13.53C5.553,74.238,1.194,82.925,2.125,92.58c1.078,11.182,9.459,20.539,20.452,22.851    c3.806,0.801,7.488,0.72,10.924-0.02C21.783,112.888,13,102.472,13,90z"/>
		<path class="st167" d="M39.91,136.99c2.221-1.677,4.775-2.933,7.535-3.689c-1.898-0.52-3.891-0.811-5.955-0.811    c-5.06,0-9.74,1.67-13.49,4.5c-3.67,2.74-6.46,6.57-7.91,11.01H32C33.45,143.56,36.24,139.73,39.91,136.99z"/>
		<rect x="86" y="133" class="st163" width="7" height="5"/>
		<rect x="147" y="133" class="st163" width="7" height="5"/>
		<rect x="86" y="111" class="st163" width="7" height="5"/>
		<rect x="147" y="111" class="st163" width="7" height="5"/>
		<rect x="65" y="127" class="st163" width="110" height="5"/>
	</g>
	<g>
		<path class="st168" d="M124.838,3.627l4.2,3C129.385,6.876,129.792,7,130.2,7c0.377,0,0.754-0.106,1.085-0.32l4.8-3.1    c0.928-0.6,1.194-1.837,0.595-2.765c-0.599-0.929-1.84-1.193-2.765-0.595l-3.658,2.363l-3.095-2.21    c-0.897-0.644-2.148-0.434-2.79,0.465S123.938,2.985,124.838,3.627z"/>
		<path class="st168" d="M104.838,33.627l4.2,3C109.385,36.876,109.792,37,110.2,37c0.377,0,0.754-0.106,1.085-0.32l4.8-3.1    c0.928-0.6,1.194-1.837,0.595-2.765c-0.599-0.929-1.839-1.192-2.765-0.595l-3.658,2.363l-3.095-2.21    c-0.898-0.644-2.148-0.435-2.79,0.465C103.73,31.736,103.938,32.985,104.838,33.627z"/>
		<path class="st168" d="M88.838,16.728l4.2,3c0.347,0.248,0.754,0.373,1.162,0.373c0.377,0,0.754-0.106,1.085-0.32l4.8-3.1    c0.928-0.6,1.194-1.837,0.595-2.765c-0.599-0.928-1.839-1.192-2.765-0.595l-3.658,2.363l-3.095-2.21    c-0.897-0.644-2.148-0.434-2.79,0.465S87.938,16.085,88.838,16.728z"/>
		<path class="st168" d="M10,146H2c-1.104,0-2,0.896-2,2s0.896,2,2,2h8c1.104,0,2-0.896,2-2S11.104,146,10,146z"/>
		<path class="st168" d="M188,146h-7c-1.104,0-2,0.896-2,2s0.896,2,2,2h7c1.104,0,2-0.896,2-2S189.104,146,188,146z"/>
		<path class="st168" d="M175,121h-19v-8h12c1.104,0,2-0.896,2-2V98c0-1.104-0.896-2-2-2h-12v-3h12c1.104,0,2-0.896,2-2V78    c0-1.104-0.896-2-2-2H72c-1.104,0-2,0.896-2,2v13c0,1.104,0.896,2,2,2h12v3H72c-1.104,0-2,0.896-2,2v13c0,1.104,0.896,2,2,2h12v8    H65c-1.104,0-2,0.896-2,2v9c0,1.104,0.896,2,2,2h19v12H64.288c-3.681-9.332-12.656-15.51-22.798-15.51    c-4.075,0-7.985,0.984-11.49,2.859v-15.429c14.509-1.03,26-13.154,26-27.921c0-8.172-3.635-15.983-9.815-21.286    C48.979,64.877,50.5,60.257,50.5,55.5c0-7.042-3.247-13.564-8.776-17.809C42.89,35.48,43.5,33.028,43.5,30.5    C43.5,21.953,36.547,15,28,15s-15.5,6.953-15.5,15.5c0,2.528,0.609,4.98,1.776,7.192C8.747,41.937,5.5,48.459,5.5,55.5    c0,4.757,1.521,9.377,4.315,13.214C3.635,74.018,0,81.829,0,90c0,14.766,11.491,26.891,26,27.921v18.116    c-3.268,2.658-5.765,6.061-7.302,9.963H15.91c-1.104,0-2,0.896-2,2s0.896,2,2,2h46.984c0.002,0,0.004,0.001,0.006,0.001    c0.002,0,0.004-0.001,0.006-0.001H175c1.104,0,2-0.896,2-2s-0.896-2-2-2h-19v-12h19c1.104,0,2-0.896,2-2v-9    C177,121.896,176.104,121,175,121z M152,121h-3v-8h3V121z M95,121v-8h50v8H95z M149,96v-3h3v3H149z M95,96v-3h50v3H95z M74,80h92    v9h-12h-7H93h-7H74V80z M88,93h3v3h-3V93z M74,100h92v9H74V100z M88,113h3v8h-3V113z M88,134h3v12h-3V134z M145,134v12H95v-12H145    z M4,90c0-7.598,3.669-14.835,9.815-19.359c0.452-0.333,0.743-0.839,0.803-1.397c0.061-0.558-0.117-1.115-0.487-1.536    C11.144,64.318,9.5,59.982,9.5,55.5c0-6.326,3.191-12.145,8.538-15.565c0.46-0.294,0.779-0.763,0.885-1.299    c0.104-0.536-0.014-1.091-0.328-1.538c-1.37-1.946-2.095-4.227-2.095-6.598C16.5,24.159,21.659,19,28,19s11.5,5.159,11.5,11.5    c0,2.371-0.725,4.652-2.095,6.598c-0.314,0.446-0.433,1.002-0.328,1.538c0.105,0.536,0.425,1.005,0.885,1.299    c5.347,3.42,8.538,9.239,8.538,15.565c0,4.482-1.645,8.818-4.631,12.208c-0.37,0.421-0.548,0.978-0.487,1.536    c0.06,0.558,0.351,1.064,0.803,1.397C48.331,75.164,52,82.401,52,90c0,12.559-9.7,22.89-22,23.91V83c0-1.104-0.896-2-2-2    s-2,0.896-2,2v30.91C13.699,112.89,4,102.559,4,90z M29.205,138.587c3.551-2.68,7.799-4.097,12.285-4.097    c7.943,0,15.03,4.53,18.434,11.51H23.062C24.48,143.091,26.563,140.559,29.205,138.587z M152,146h-3v-12h3V146z M173,130H67v-5    h106V130z"/>
	</g>
</g>
</svg>