<?xml version="1.0" encoding="UTF-8"?>
<!-- Generator: Adobe Illustrator 19.2.1, SVG Export Plug-In . SVG Version: 6.00 Build 0)  -->
<svg version="1.1" id="Layer_1" xmlns="http://www.w3.org/2000/svg" xmlns:xlink="http://www.w3.org/1999/xlink" x="0px" y="0px" viewBox="0 0 143.058 150" style="enable-background:new 0 0 143.058 150;" xml:space="preserve">
<style type="text/css">
	.st0{display:none;fill:none;stroke:#FFFFFF;stroke-width:2;stroke-linecap:round;stroke-miterlimit:10;}
	.st1{fill:#D5D2E4;}
	.st2{fill:#43324E;}
	.st3{fill:#FFFFFF;}
	.st4{fill:#ECEDED;}
	.st5{fill:#E1E2E3;}
	.st6{fill:url(#SVGID_1_);}
	.st7{fill:url(#SVGID_2_);}
	.st8{fill:#414042;}
	.st9{fill:#96806A;}
	.st10{fill:#EDDFC7;}
	.st11{fill:#594A42;}
	.st12{fill:#E81C24;}
	.st13{fill:#00ADFF;}
	.st14{fill:#FFDFD7;}
	.st15{fill:#A63E45;}
	.st16{fill:#328BE7;}
	.st17{fill:#49CA8F;}
	.st18{fill:#58595B;}
	.st19{fill:#FF8BA5;}
	.st20{fill:#EFF0F0;}
	.st21{fill:#978278;}
	.st22{fill:#CED0D1;}
	.st23{fill:#FFC877;}
	.st24{fill:#6866A4;}
</style>
<g>
	<g>
		<rect x="15" y="125" class="st17" width="2" height="15"/>
		<rect x="15" y="13" class="st17" width="2" height="10"/>
		<rect x="15" y="0" class="st17" width="2" height="11"/>
		<rect x="35" y="6" class="st17" width="2" height="18"/>
		<rect x="35" y="125" class="st17" width="2" height="6.434"/>
		<rect x="35" y="133" class="st17" width="2" height="7"/>
		<polygon class="st17" points="25,134 25,143 25,150 27,150 27,143 27,134 27,125 25,125   "/>
		<polygon class="st17" points="25,13 25,23 27,23 27,13 27,8 25,8   "/>
	</g>
	<path class="st4" d="M142,29.87V41H1V29.87C1,26.08,4.08,23,7.87,23h127.26C138.92,23,142,26.08,142,29.87z M29,32c0-1.1-0.9-2-2-2   s-2,0.9-2,2c0,1.1,0.9,2,2,2S29,33.1,29,32z M21,32c0-1.1-0.9-2-2-2s-2,0.9-2,2c0,1.1,0.9,2,2,2S21,33.1,21,32z M13,32   c0-1.1-0.9-2-2-2s-2,0.9-2,2c0,1.1,0.9,2,2,2S13,33.1,13,32z"/>
	<polygon class="st4" points="57,60 57,107 33.5,83.5  "/>
	<polygon class="st4" points="57,60 33.5,83.5 10,60  "/>
	<polygon class="st4" points="57,107 10,107 33.5,83.5  "/>
	<polygon class="st4" points="33.5,83.5 10,107 10,60  "/>
	<circle class="st18" cx="27" cy="32" r="2"/>
	<path class="st3" d="M2,41h140v84H1V41H2z M57,107V60H10v47H57z"/>
	<g>
		<circle class="st18" cx="19" cy="32" r="2"/>
		<circle class="st18" cx="11" cy="32" r="2"/>
		<path class="st18" d="M135.13,22H7.87C3.53,22,0,25.531,0,29.87V40v6v80h143V46v-6V29.87C143,25.531,139.47,22,135.13,22z M2,124    v-1.49h139V124H2z M141,120.51H2V46h139V120.51z M2,40V29.87C2,26.633,4.634,24,7.87,24h127.26c3.236,0,5.87,2.633,5.87,5.87V40H2    z"/>
		<path class="st18" d="M58,108V59H9v49H58z M34.914,83.5L56,62.414v42.172L34.914,83.5z M54.586,106H12.414L33.5,84.914L54.586,106    z M33.5,82.086L12.414,61h42.172L33.5,82.086z M32.086,83.5L11,104.586V62.414L32.086,83.5z"/>
		<rect x="73" y="59" class="st18" width="62" height="2"/>
		<rect x="73" y="69" class="st18" width="62" height="2"/>
		<rect x="73" y="79" class="st18" width="62" height="2"/>
		<rect x="73" y="89" class="st18" width="62" height="2"/>
		<rect x="73" y="99" class="st18" width="38" height="2"/>
		<path class="st18" d="M133.153,30h-9.489c-1.379,0-2.5,1.122-2.5,2.5s1.121,2.5,2.5,2.5h9.489c1.379,0,2.5-1.122,2.5-2.5    S134.532,30,133.153,30z M133.153,33h-9.489c-0.275,0-0.5-0.224-0.5-0.5s0.225-0.5,0.5-0.5h9.489c0.275,0,0.5,0.224,0.5,0.5    S133.429,33,133.153,33z"/>
	</g>
</g>
</svg>